<svg id="Layer_1" data-name="Layer 1" xmlns="http://www.w3.org/2000/svg" xmlns:xlink="http://www.w3.org/1999/xlink" viewBox="0 0 876.74 611.76"><defs><style>.cls-1{fill:url(#linear-gradient);}.cls-2{fill:url(#linear-gradient-2);}.cls-3{fill:#e57c25;}.cls-4{fill:url(#linear-gradient-3);}.cls-5{fill:url(#linear-gradient-4);}.cls-6{fill:url(#linear-gradient-5);}.cls-10,.cls-7,.cls-8,.cls-9{fill:none;stroke-miterlimit:10;}.cls-7{stroke:url(#linear-gradient-6);}.cls-8{stroke:url(#linear-gradient-7);}.cls-9{stroke:url(#linear-gradient-8);}.cls-10{stroke:url(#linear-gradient-9);}</style><linearGradient id="linear-gradient" x1="542.3" y1="355.55" x2="553.54" y2="355.55" gradientUnits="userSpaceOnUse"><stop offset="0" stop-color="#984321"/><stop offset="0.01" stop-color="#9a4421"/><stop offset="0.31" stop-color="#c05621"/><stop offset="0.58" stop-color="#dc6321"/><stop offset="0.82" stop-color="#ed6b21"/><stop offset="1" stop-color="#f36e21"/></linearGradient><linearGradient id="linear-gradient-2" x1="483.86" y1="262.26" x2="537.4" y2="262.26" xlink:href="#linear-gradient"/><linearGradient id="linear-gradient-3" x1="552.75" y1="265.49" x2="615.23" y2="265.49" xlink:href="#linear-gradient"/><linearGradient id="linear-gradient-4" x1="282.98" y1="419.48" x2="560.63" y2="419.48" xlink:href="#linear-gradient"/><linearGradient id="linear-gradient-5" x1="536.35" y1="263.28" x2="552.75" y2="263.28" xlink:href="#linear-gradient"/><linearGradient id="linear-gradient-6" x1="517.51" y1="343.41" x2="538.85" y2="343.41" xlink:href="#linear-gradient"/><linearGradient id="linear-gradient-7" x1="517.51" y1="350.77" x2="538.85" y2="350.77" xlink:href="#linear-gradient"/><linearGradient id="linear-gradient-8" x1="517.51" y1="358.56" x2="538.85" y2="358.56" xlink:href="#linear-gradient"/><linearGradient id="linear-gradient-9" x1="516.45" y1="366.34" x2="537.79" y2="366.34" xlink:href="#linear-gradient"/></defs><polygon class="cls-1" points="553.54 375.98 542.3 383 542.3 328.1 553.54 336.74 553.54 375.98"/><rect class="cls-2" x="483.86" y="231.41" width="53.54" height="61.7"/><rect class="cls-3" x="337.56" y="322.92" width="47.33" height="67.21"/><rect class="cls-3" x="463.56" y="323.63" width="47.33" height="67.21"/><path class="cls-4" d="M584,126.65a31.24,31.24,0,0,0-31.24,31.24v215.2a31.24,31.24,0,0,0,62.48,0V157.89A31.24,31.24,0,0,0,584,126.65Zm-.36,15.78a17.2,17.2,0,1,1-17.2,17.2A17.2,17.2,0,0,1,583.63,142.43Zm.36,247.7a17.2,17.2,0,1,1,17.2-17.2A17.2,17.2,0,0,1,584,390.13Z"/><path class="cls-5" d="M283,417.5a31.24,31.24,0,0,0,30.79,31.68L529,452.25a31.24,31.24,0,0,0,.89-62.47l-215.18-3.07A31.24,31.24,0,0,0,283,417.5Zm15.77.59a17.2,17.2,0,1,1,16.95,17.44A17.2,17.2,0,0,1,298.75,418.09Zm247.68,3.16a17.2,17.2,0,1,1-16.95-17.44A17.19,17.19,0,0,1,546.43,421.25Z"/><polygon class="cls-6" points="552.75 293.11 536.35 303.36 536.35 223.21 552.75 235.83 552.75 293.11"/><polygon class="cls-3" points="595.88 409.95 595.88 422.69 583.99 435.43 538.9 434.94 540.6 410.38 559.11 410.96 571.27 398.13 595.88 398.13 595.88 409.95"/><path class="cls-3" d="M583.57,364.36a12.31,12.31,0,0,0-12.3,12.31v21.46a12.31,12.31,0,0,0,24.61,0V376.67A12.31,12.31,0,0,0,583.57,364.36Zm0,21.91a6.62,6.62,0,1,1,6.61-6.62A6.62,6.62,0,0,1,583.56,386.27Z"/><path class="cls-3" d="M551.83,410.83,530.39,410a12.31,12.31,0,0,0-12.79,11.8h0a12.29,12.29,0,0,0,11.8,12.79l21.43.87a12.3,12.3,0,0,0,12.8-11.8h0A12.31,12.31,0,0,0,551.83,410.83Zm-21.44,18.48a6.62,6.62,0,1,1,6.62-6.62A6.61,6.61,0,0,1,530.39,429.31Z"/><path class="cls-7" d="M517.89,343.53s4-4.73,9.25,0,11.36-1,11.36-1"/><path class="cls-8" d="M517.89,350.89s4-4.73,9.25,0,11.36-1.05,11.36-1.05"/><path class="cls-9" d="M517.89,358.68s4-4.73,9.25,0,11.36-1.05,11.36-1.05"/><path class="cls-10" d="M516.83,366.47s4-4.74,9.26,0,11.36-1.06,11.36-1.06"/></svg>