<svg id="Layer_1" data-name="Layer 1" xmlns="http://www.w3.org/2000/svg" xmlns:xlink="http://www.w3.org/1999/xlink" viewBox="0 0 774.47 590.67"><defs><style>.cls-1{fill:#f3f4f4;}.cls-2{fill:#77421b;}.cls-3{fill:#e57c25;}.cls-4{fill:url(#linear-gradient);}.cls-5{fill:url(#linear-gradient-2);}.cls-6{fill:url(#linear-gradient-3);}.cls-7{fill:url(#linear-gradient-4);}.cls-8{fill:url(#linear-gradient-5);}</style><linearGradient id="linear-gradient" x1="257.55" y1="140.79" x2="330.97" y2="140.79" gradientUnits="userSpaceOnUse"><stop offset="0" stop-color="#984321"/><stop offset="0.01" stop-color="#9a4421"/><stop offset="0.31" stop-color="#c05621"/><stop offset="0.58" stop-color="#dc6321"/><stop offset="0.82" stop-color="#ed6b21"/><stop offset="1" stop-color="#f36e21"/></linearGradient><linearGradient id="linear-gradient-2" x1="264.17" y1="213.44" x2="319.89" y2="213.44" xlink:href="#linear-gradient"/><linearGradient id="linear-gradient-3" x1="266.23" y1="231.05" x2="266.23" y2="153.96" gradientUnits="userSpaceOnUse"><stop offset="0" stop-color="#984321"/><stop offset="0.07" stop-color="#ab4c21"/><stop offset="0.2" stop-color="#c55821"/><stop offset="0.34" stop-color="#d96221"/><stop offset="0.5" stop-color="#e86921"/><stop offset="0.69" stop-color="#f06d21"/><stop offset="1" stop-color="#f36e21"/></linearGradient><linearGradient id="linear-gradient-4" x1="223.92" y1="152.53" x2="279.64" y2="152.53" xlink:href="#linear-gradient"/><linearGradient id="linear-gradient-5" x1="321.34" y1="155.41" x2="341.36" y2="155.41" xlink:href="#linear-gradient"/></defs><path class="cls-1" d="M356.4,315.58c0,3.71,3.94,6.72,8.8,6.72s8.8-3,8.8-6.72-3.94-6.72-8.8-6.72S356.4,311.87,356.4,315.58Z"/><polygon class="cls-2" points="266.54 270.68 468.83 81.26 468.83 94.93 266.54 288.37 266.54 270.68"/><polygon class="cls-3" points="295.42 283.59 472.45 115.84 461.62 101.83 284.22 271.46 295.42 283.59"/><polygon class="cls-2" points="297.43 414.56 280.62 493.88 297.43 493.88 311.46 398.78 297.43 414.56"/><polygon class="cls-2" points="535.81 334.21 601.95 493.88 632.11 493.88 546.64 320.75 543.48 328.88 535.81 334.21"/><polygon class="cls-3" points="332.51 213.23 283.95 253.54 274.62 242.31 322.79 201.52 332.51 213.23"/><path class="cls-4" d="M327.43,148.5l-50.79-25.84c-12.61-3.08-17.5,7-17.5,7-6.51,14.87,9.07,20.66,9.07,20.66s55.2,13.5,61.1,7.88C333.93,153.75,327.43,148.5,327.43,148.5ZM274,142.88a6.65,6.65,0,1,1,6.6-6.68A6.65,6.65,0,0,1,274,142.88Z"/><path class="cls-5" d="M272,191.71h0a21.92,21.92,0,0,0-2.79,30.87l15.24,18.36,35.4-30.85-12.46-15A25.13,25.13,0,0,0,272,191.71Zm23.65,27.46a12.26,12.26,0,1,1,1.56-17.23A12.24,12.24,0,0,1,295.69,219.17Z"/><path class="cls-6" d="M301.82,190.06s-64.94-38.74-73.44-35.95c-9.79,3.21-4.41,11.18-4.41,11.18l47.62,60.12c15.48,13,30.45-.5,30.45-.5C320,210.19,301.82,190.06,301.82,190.06Zm-70-21a4.9,4.9,0,1,1,6.9.64A4.89,4.89,0,0,1,231.85,169.05Zm64.87,51.36a12.2,12.2,0,1,1,1.6-17.19A12.2,12.2,0,0,1,296.72,220.41Z"/><path class="cls-7" d="M264.61,130.72l-35.51,20c-9.25,9.11-3.28,18.54-3.28,18.54,9.09,14,22.35,3.13,22.35,3.13S278.28,143.25,279.4,137C281.86,123.17,264.61,130.72,264.61,130.72Zm-25.88,35.4a5.77,5.77,0,1,1,5.06-6.41A5.76,5.76,0,0,1,238.73,166.12Zm32.15-25.36a4.28,4.28,0,1,1,3.75-4.75A4.28,4.28,0,0,1,270.88,140.76Z"/><path class="cls-8" d="M331.35,145.4a10,10,0,1,0,10,10A10,10,0,0,0,331.35,145.4Zm0,15.33a5.32,5.32,0,1,1,5.32-5.32A5.32,5.32,0,0,1,331.35,160.73Z"/><polygon class="cls-3" points="333.94 162.47 351.22 189.22 356.66 184.52 339.67 157.33 333.94 162.47"/><path class="cls-3" d="M547.64,323.09,466.3,133A8.65,8.65,0,0,0,455,128.41h0a8.65,8.65,0,0,0-4.55,11.35l81.34,190.13a8.65,8.65,0,0,0,15.9-6.8ZM460.59,145.4a4.83,4.83,0,1,1,0-9.65C463.25,135.75,463.25,145.4,460.59,145.4Zm78.06,183.48a4.83,4.83,0,1,1,4.83-4.82A4.82,4.82,0,0,1,538.65,328.88Z"/><path class="cls-3" d="M332.73,251.36a8.65,8.65,0,0,0-10.2,6.74L292.71,404.19a8.64,8.64,0,1,0,16.94,3.46l29.83-146.09A8.66,8.66,0,0,0,332.73,251.36Zm-31,156.07a4.33,4.33,0,1,1,4.33-4.33A4.32,4.32,0,0,1,301.75,407.43ZM331,266.68a4.33,4.33,0,1,1,4.32-4.33A4.33,4.33,0,0,1,331,266.68Z"/></svg>