<svg xmlns="http://www.w3.org/2000/svg" viewBox="0 0 828.74 557.17"><defs><style>.cls-1{isolation:isolate;}.cls-2{fill:#c8c8c8;}.cls-3{fill:#f3f4f4;}.cls-4{fill:#e57c25;}.cls-5{fill:#474747;}.cls-6{fill:#797979;}.cls-7{fill:#fff;}.cls-8{fill:#b5b5b5;}.cls-9{opacity:0.2;mix-blend-mode:screen;}.cls-10{fill:#3f3d3f;}.cls-11{fill:#eab1b8;}.cls-12{fill:#3a507b;}.cls-13{fill:#374d7e;}.cls-14{fill:#568cca;}.cls-15{fill:#4865a2;}.cls-16{fill:#e5958a;}.cls-17{fill:#eb5161;}.cls-18{fill:#cc4554;}.cls-19{fill:#75a0d5;}.cls-20{fill:#fec463;}.cls-21{fill:#faad5e;}.cls-22{fill:#fff7c2;}.cls-23{fill:#ffd686;}.cls-24{fill:none;}.cls-25{fill:#fbaa34;}</style></defs><g class="cls-1"><g id="Layer_1" data-name="Layer 1"><polygon class="cls-2" points="649.53 160.11 651.94 157.53 516.63 83.92 514.22 86.49 649.53 160.11"/><rect class="cls-3" x="234.79" y="163.6" width="48.33" height="10.9"/><path class="cls-4" d="M523.41,165.71H626.34V139H558.92Zm97.41-4.22H536.89l24.29-18.28h59.64Z"/><polygon class="cls-4" points="587.33 164.91 591.23 164.91 620.46 142.59 616.55 139.61 589.28 160.44 562 139.61 558.1 142.59 587.33 164.91"/><polygon class="cls-2" points="326.55 142.57 516.16 86.68 514.67 83.73 325.06 139.62 326.55 142.57"/><polygon class="cls-2" points="181.25 142.64 515.86 86.75 514.98 83.66 180.36 139.55 181.25 142.64"/><path class="cls-4" d="M489.57,161.49h51.7l-12-51.33H501.61Zm45.1-4.22h-38.5l10.06-42.89h18.39Z"/><rect class="cls-5" x="449.33" y="461.23" width="129.79" height="8.34"/><path class="cls-4" d="M497.93,387.49h35V182.76h-35ZM527.39,383H503.45V187.21h23.94Z"/><polygon class="cls-4" points="528.2 373.67 532.1 370.52 504.83 348.54 530.5 327.86 530.5 324.72 505.87 304.87 530.26 285.21 530.17 282 504.79 263.33 531.33 243.74 530.72 243.21 532.1 240.53 504.83 218.55 530.5 197.87 526.59 194.72 498.97 216.98 498.97 220.13 525.83 241.76 498.82 261.69 498.83 264.98 524.31 283.72 500.01 303.3 500.01 306.44 524.64 326.29 498.97 346.97 498.97 350.12 528.2 373.67"/><polygon class="cls-6" points="498.06 382.07 515.42 382.07 532.79 382.07 561.44 412.31 561.44 461.61 515.42 461.61 469.4 461.61 469.4 412.31 498.06 382.07"/><path class="cls-4" d="M144.17,165.71h362.9L474.28,139H179.68Zm350.15-4.22H157.64l24.3-18.28H471.88Z"/><path class="cls-3" d="M484.13,192.43c0,2.33,2.47,4.22,5.52,4.22h51.54c3,0,5.53-1.89,5.53-4.22V156.57c0-2.33-2.48-4.22-5.53-4.22H489.65c-3,0-5.52,1.89-5.52,4.22Z"/><polygon class="cls-4" points="383.45 164.91 387.35 164.91 414.63 144.08 441.9 164.91 445.8 164.91 475.03 142.59 471.13 139.61 443.85 160.44 416.58 139.61 412.67 139.61 385.4 160.44 358.12 139.61 354.22 142.59 383.45 164.91"/><polygon class="cls-4" points="266.54 164.91 270.44 164.91 297.71 144.08 324.99 164.91 328.89 164.91 358.12 142.59 354.22 139.61 326.94 160.44 299.67 139.61 295.76 139.61 268.49 160.44 241.21 139.61 237.31 142.59 266.54 164.91"/><polygon class="cls-4" points="208.08 164.91 211.99 164.91 241.21 142.59 237.31 139.61 210.04 160.44 182.76 139.61 178.85 142.59 208.08 164.91"/><rect class="cls-4" x="616.91" y="131.61" width="67.66" height="34.1"/><rect class="cls-5" x="511.74" y="156.57" width="29.45" height="15.12"/><rect class="cls-5" x="489.65" y="156.57" width="17.72" height="15.12"/><path class="cls-7" d="M644.68,165.71a11.37,11.37,0,1,0,11.37-11.25A11.31,11.31,0,0,0,644.68,165.71Z"/><rect class="cls-4" x="496.55" y="133.72" width="37.74" height="4.22"/><path class="cls-4" d="M503.6,114.38h23.5l2.62-2.77L518.05,84.55H512.8L501,111.61Zm19.68-4.22H507.43l8-18.25Z"/><path class="cls-4" d="M649.74,165.71a6.31,6.31,0,1,0,6.31-6.24A6.27,6.27,0,0,0,649.74,165.71Z"/><rect class="cls-8" x="469.4" y="441.48" width="92.04" height="13.79"/><rect class="cls-8" x="469.4" y="413.49" width="92.04" height="13.8"/><g class="cls-9"><polygon class="cls-6" points="469.4 461.61 469.4 412.31 498.06 382.07 515.42 382.07 515.42 461.61 469.4 461.61"/></g><rect class="cls-2" x="262.34" y="174.5" width="3.16" height="108.71"/><rect class="cls-2" x="250.75" y="174.5" width="3.16" height="108.71"/><path class="cls-8" d="M266.27,309.94a3.72,3.72,0,0,1,.75,1.83c1,3.72-3.25,10.18-9.53,6.82a5.77,5.77,0,0,1-2.7-6.43c.59-2.28,3.33-5.66,4.51-7.45,2.15-3.26,1-9.7.19-9.34-.2.08-.41.54-.53.75-4.09,6.71-13.42,9.44-11.61,18.27,3.25,13.51,23.88,12,21.61-.83a6.39,6.39,0,0,0-1.69-3.72,4.57,4.57,0,0,0-.47-.43A.37.37,0,0,0,266.27,309.94Z"/><path class="cls-6" d="M247.31,296.66a4.22,4.22,0,0,0,4.22,4.22h13.19a4.22,4.22,0,0,0,4.22-4.22V274.51l-10.81-8.43-10.82,8.43Z"/><path class="cls-6" d="M258.23,322.61,222.81,353.4V466.27h68.84V353.4Zm23,137.1H232.19v-82.9h49.05Z"/><rect class="cls-10" x="208.09" y="466.27" width="94.75" height="4.37"/><path class="cls-11" d="M281.78,373.81c-.83.68-1.63,1.43-1.52,1.76l0,.06.26-.06s-.23.14.1,0l.08,0a.73.73,0,0,0-.2.82c.43,1,2,.45,2.72.24a35.27,35.27,0,0,0,3.54-1.48c.66-.36,1.37-1.71.81-2.4s-3,1.18-3.49.61c-.26-.32.42-1.42-.57-.84C283.33,372.63,282.54,373.19,281.78,373.81Z"/><path class="cls-11" d="M256.34,433.1s-2,5.09,2.11,21.48c.33,1.31,1.36,1.23,1.9.81a1.14,1.14,0,0,0,.37-.82s1.94-18.68,1.45-21S256.34,433.1,256.34,433.1Z"/><path class="cls-12" d="M261.62,395.39H252.1a.62.62,0,0,1,0,.13c0,1.82,0,3.64,0,5.47.06,4.6,0,3.42.23,8,.23,3.91,3.09,21.7,3.5,22.65s.21,2.71,1,3.44c1.32,1.15,3.9,1.77,5,.32.74-1,.41-6,.54-7.23.12-1.06.11-2.14.16-3.13.2-4-.07-7.95-.09-11.93A132.05,132.05,0,0,0,261.62,395.39Z"/><path class="cls-13" d="M266.27,456.26c-.65-.09-.85,0-1.5-.11a6.72,6.72,0,0,1-1.85-.62,12.78,12.78,0,0,1-1.9-1.26l-.19-.13a2.37,2.37,0,0,1-2.32,0,.35.35,0,0,1-.18-.15.23.23,0,0,0-.07.07,1.4,1.4,0,0,0-.21.69,16.07,16.07,0,0,0-.19,2.67c.13.61,3.42,1.33,4.5,1.39a15.82,15.82,0,0,0,4-.08C267.77,458.49,267.37,456.42,266.27,456.26Z"/><path class="cls-11" d="M249.47,432.54s2,5.1-2.12,21.49c-.32,1.31-1.35,1.23-1.89.8a1.13,1.13,0,0,1-.37-.82s-1-19-.5-21.31S249.47,432.54,249.47,432.54Z"/><path class="cls-12" d="M244.5,395.39a4.24,4.24,0,0,0-.4,1.23,111,111,0,0,0-.83,16c0,4,.42,16.27.66,20.89.09,1.82,4.14,3.11,5.46,1.95a6.19,6.19,0,0,0,1.82-2.31c.41-.95,1.9-22.1,2.13-26,.27-4.6.25-2,.32-6.66,0-1.68,0-3.36,0-5Z"/><path class="cls-13" d="M252.8,456.46c-.65-.09-.85,0-1.5-.11a6.41,6.41,0,0,1-1.85-.62,11.6,11.6,0,0,1-1.9-1.26l-.19-.13a2.39,2.39,0,0,1-2.32,0,.36.36,0,0,1-.18-.16l-.08.07a1.55,1.55,0,0,0-.21.7,15.93,15.93,0,0,0-.18,2.66c.13.61,3.42,1.33,4.5,1.4a16.71,16.71,0,0,0,4-.08C254.29,458.69,253.9,456.62,252.8,456.46Z"/><path class="cls-12" d="M261.19,454.58c.53-5.46,1.34-19.3,1-21-.49-2.31-5.83-.49-5.83-.49s-2.39,5.1,1.85,21.36Z"/><path class="cls-12" d="M247.82,454.61c3.4-14.69,3.56-23.14,3.56-23.14s-7.56-2.79-7.36,1.47c.08,1.8.25,16.05.6,21.74Z"/><path class="cls-11" d="M271,386.75c-.68-.27-2.54-1.39-2.47-2.47.06-.9.46-1.1.46-1.1a81.85,81.85,0,0,1,11.08-7.12c3.22-1.69,1.92,1.53,1.92,1.53C279.12,380.43,276.63,383.35,271,386.75Z"/><path class="cls-11" d="M273.1,384.09c-2.29-6.94-3.83-7.21-5.83-10.31-2.93-4.55-9.25-8.41-10.13-5-.42,1.65,11.36,15,13.2,17.67C271.3,386.05,272,384.72,273.1,384.09Z"/><path class="cls-14" d="M270.09,387.4c-1.6-2.18-8.2-10.88-8.9-11.66-4-4.55-5.92-6.45-4.12-8.95,2-2.83,7,1.92,10.38,6,2.21,2.7,3.25,4.17,6.2,9.69C274.1,384.32,272,388.11,270.09,387.4Z"/><path class="cls-14" d="M279.37,376.38a82.2,82.2,0,0,0-10.86,6.54c-.32,1.3.1.46,0,1.36-.07,1.08,2.2,2.71,2.87,3,5.07-3.08,7.19-6,9.76-8.61Z"/><path class="cls-7" d="M280.16,379.73l1-1.08-1.81-2.27-1.34.74Z"/><path class="cls-14" d="M259.56,366c-.46-.16-3.42-.79-4-.89-.62.57-1.39-.25-2.32-.29s-2.11.68-2.75.18l-.1-.09c-.48,0,.78.06.29.11a27.7,27.7,0,0,0-6.05,2.53c-3.39,2.09-2.17,5-2.1,6.23.19,3.17.49,28.31-.08,31.74H263.1c.35-.31-.49-28.11-.74-32.15C262,367.92,262.2,366.88,259.56,366Z"/><path class="cls-15" d="M253,347.56a5,5,0,0,0-3.15.59,6.48,6.48,0,0,1-1.28.52c-1.67.44-2,2.94-1.91,4.38a12.69,12.69,0,0,0,.61,2.33c.59,2,2.21,4,4.47,3.9a5.38,5.38,0,0,0,3.81-2C257.77,354.47,257.18,348.25,253,347.56Z"/><path class="cls-11" d="M248.82,356.68c.38.84,1.93,1.71,2.08.88a4.87,4.87,0,0,0-.37-2.4c-.39-.84-.27-1-1-.63A1.59,1.59,0,0,0,248.82,356.68Z"/><path class="cls-11" d="M250.87,358.28c.14-1.82,5.48,1.57,5.48,1.57l-.57,6.95s-.06-.28-2.69-.22c-1.6,0-2.59.54-2.51-.95C250.63,364.7,250.82,358.91,250.87,358.28Z"/><path class="cls-16" d="M250.79,360a5.34,5.34,0,0,0,5.2,4l.36-4.21s-5.34-3.39-5.48-1.57c0,.19,0-.38-.06.42C250.84,358.74,250.77,360,250.79,360Z"/><path class="cls-11" d="M257.55,360.84a4.92,4.92,0,0,1-5.84-.47,5,5,0,0,1-1.43-2.81c-.2-1.22-.11-2.37-.3-3.6a7.24,7.24,0,0,1-.13-1.61,4.51,4.51,0,0,1,.88-2.41,6.76,6.76,0,0,1,2-1.49,6.28,6.28,0,0,1,2-1c.5-.08.83.21,1.25.47,2.23,1.39,3.35,4.55,3.42,7.08C259.5,356.92,259.12,359.58,257.55,360.84Z"/><path class="cls-17" d="M256.7,387.12s-2,5.75-2.56,5.78-2.31-5.78-2.31-5.78l1.11-19.5h1.59Z"/><path class="cls-17" d="M255.22,366.68a1.42,1.42,0,1,1-2.82,0,1.73,1.73,0,0,1,1.47-1.76C254.65,364.92,255.22,365.81,255.22,366.68Z"/><path class="cls-18" d="M254.06,367.57a2.27,2.27,0,0,1-1.51-1.61,2,2,0,0,0-.15.72,1.5,1.5,0,0,0,1.41,1.58,1.37,1.37,0,0,0,1.13-.64A1.49,1.49,0,0,1,254.06,367.57Z"/><path class="cls-7" d="M250.85,362.84l2.65,1.84L252,367.79l-3.89-2S249.46,363,250.85,362.84Z"/><path class="cls-7" d="M253.5,364.68l2.3,2.78,2.12-1.88s-.57-1.84-1.84-2.05Z"/><path class="cls-15" d="M259.6,346.28c-.07-.89-.6-.9-1.36-.78a21.08,21.08,0,0,1-2.25.36,11.38,11.38,0,0,1-2.4-.26,6.89,6.89,0,0,0-4.18.81c-1.93,1-3.11,4.37-2.76,6.57.12.73.4.56,1,1a3.09,3.09,0,0,0,.91.61,2.41,2.41,0,0,0,1-.06c.13-.17.46.13.56.27s.27.68.65.57.46-.54.5-.85c.07-.65,0-1.3,0-1.95.05-1.34,1.28-1.34,2.34-1.53a10.42,10.42,0,0,0,5-1.79A3.69,3.69,0,0,0,259.6,346.28Z"/><path class="cls-4" d="M285.14,381.93a10.55,10.55,0,1,1,10.55-10.54A10.54,10.54,0,0,1,285.14,381.93Zm20.69-7.9V368.7h-2.1a18.46,18.46,0,0,0-.38-1.94l1.94-.79-2-4.92-1.95.8a18.94,18.94,0,0,0-1.16-1.75l1.49-1.48-3.76-3.77-1.49,1.49c-.53-.39-1.08-.75-1.64-1.09l.81-1.95-4.91-2.05-.81,1.94a20.06,20.06,0,0,0-2.05-.4v-2.12h-5.32v2.12a17.51,17.51,0,0,0-1.94.38l-.8-2-4.92,2,.8,2a20.12,20.12,0,0,0-1.74,1.15l-1.49-1.49-3.76,3.77,1.48,1.48c-.39.53-.76,1.08-1.1,1.64l-1.94-.81L265,365.84l1.93.81a20.09,20.09,0,0,0-.41,2.05h-2.09V374h2.09a18.46,18.46,0,0,0,.38,1.94l-1.93.79,2,4.92,1.92-.79a19,19,0,0,0,1.17,1.75l-1.47,1.47,3.76,3.77,1.47-1.47a18,18,0,0,0,1.64,1.1l-.8,1.92,4.91,2.05.8-1.91a18,18,0,0,0,2.07.41v2.08h5.32V390a18.15,18.15,0,0,0,1.95-.38l.78,1.92,4.93-2-.79-1.93a18.28,18.28,0,0,0,1.75-1.16l1.47,1.47,3.76-3.77-1.47-1.47a18.92,18.92,0,0,0,1.1-1.65l1.92.81,2.05-4.91-1.92-.8a20.84,20.84,0,0,0,.41-2.06Z"/><path class="cls-4" d="M285.14,362.06a9.31,9.31,0,1,0,9.3,9.31A9.31,9.31,0,0,0,285.14,362.06Zm0,13.85a4.55,4.55,0,1,1,4.54-4.54A4.55,4.55,0,0,1,285.14,375.91Z"/><path class="cls-11" d="M257.63,387.53c-1.66-7.11-3.17-7.51-4.88-10.78-2.51-4.79-8.46-9.21-9.64-5.92-.57,1.61,10,16,11.56,18.78C255.67,389.33,256.49,388.06,257.63,387.53Z"/><path class="cls-19" d="M254.34,390.56c-1.4-2.31-7.67-10.8-8.22-11.69-3.85-6.13-4.93-7.66-2.91-10,2.29-2.64,6.84,2.53,9.81,6.9,2,2.89,2.86,4.45,5.3,10.21C258.61,387.85,256.19,391.45,254.34,390.56Z"/><path class="cls-11" d="M255.43,389.33c-.54-.5-1.89-2.2-1.44-3.18.38-.83.82-.88.82-.88a83.46,83.46,0,0,1,12.89-2.72c3.61-.43,1.25,2.11,1.25,2.11C265.24,386.3,261.87,388.14,255.43,389.33Z"/><path class="cls-11" d="M269.27,381.58c-.84.68-1.64,1.43-1.53,1.76l0,.06.26-.06s-.23.14.1,0l.08,0a.73.73,0,0,0-.2.82c.44,1,2,.45,2.72.24a34.32,34.32,0,0,0,3.54-1.48c.67-.36,1.38-1.71.82-2.4s-3,1.18-3.5.61c-.26-.32.42-1.42-.57-.84C270.82,380.4,270,381,269.27,381.58Z"/><path class="cls-19" d="M266.92,382.59a83,83,0,0,0-12.48,2.27c-.76,1.1-.07.46-.45,1.29a6.81,6.81,0,0,0,.66,4.52c5.83-1.08,9.82-3.8,13.15-5.31Z"/><path class="cls-7" d="M266.46,386c.46-.24.91-.45,1.34-.65l-.88-2.77-1.53.22Z"/><rect class="cls-10" x="342.11" y="277.85" width="85.92" height="190.6"/><path class="cls-20" d="M369.37,237.13c-6.76,0-12.13-2.11-16-6.28-7.26-7.88-6.36-20.18-6.31-20.7a1.58,1.58,0,0,1,1.58-1.46h18.21a1.6,1.6,0,0,1,0,3.19H350.21c0,3.3.57,11.45,5.54,16.82,3.21,3.48,7.8,5.25,13.62,5.25a1.59,1.59,0,0,1,0,3.18Z"/><path class="cls-21" d="M365.73,208.77a1.59,1.59,0,0,1,.48,3.11h.66a1.6,1.6,0,0,0,0-3.19H348.66a1.56,1.56,0,0,0-.48.08Z"/><path class="cls-21" d="M369.37,234c-5.82,0-10.41-1.77-13.62-5.25-4.93-5.33-5.52-13.4-5.54-16.75h-1.13c0,3.3.56,11.45,5.53,16.83,3.22,3.48,7.8,5.24,13.62,5.24a1.59,1.59,0,0,1,.52,3.1h.62a1.59,1.59,0,0,0,0-3.18Z"/><path class="cls-22" d="M368.39,209.83a1.58,1.58,0,0,0-1.52-1.14H348.66C348,208.69,368.39,209.83,368.39,209.83Z"/><path class="cls-20" d="M396.85,236.83c6.76,0,12.13-2.12,16-6.29,7.26-7.87,6.36-20.17,6.31-20.69a1.57,1.57,0,0,0-1.58-1.46H399.35a1.59,1.59,0,0,0,0,3.18H416c0,3.3-.57,11.45-5.54,16.83-3.21,3.48-7.8,5.24-13.62,5.24a1.6,1.6,0,0,0,0,3.19Z"/><path class="cls-21" d="M400.49,208.46a1.6,1.6,0,0,0-1.59,1.6,1.57,1.57,0,0,0,1.11,1.51h-.66a1.59,1.59,0,0,1,0-3.18h18.21a1.55,1.55,0,0,1,.48.07Z"/><path class="cls-21" d="M396.85,233.64c5.82,0,10.41-1.76,13.62-5.24,4.93-5.34,5.52-13.4,5.54-16.75h1.14c0,3.3-.57,11.45-5.54,16.82-3.22,3.48-7.8,5.25-13.62,5.25a1.59,1.59,0,0,0-.52,3.1h-.62a1.6,1.6,0,0,1,0-3.19Z"/><path class="cls-22" d="M397.83,209.52a1.58,1.58,0,0,1,1.52-1.13h18.21C418.27,208.39,397.83,209.52,397.83,209.52Z"/><path class="cls-23" d="M365.39,204.14v23.91A16.59,16.59,0,0,0,382,244.64h2.77a16.59,16.59,0,0,0,16.59-16.59V204.14Z"/><path class="cls-20" d="M369.11,215.41c10.49-3.7,21.42-5.78,32.23-8.32v-3H365.39v12.65Q367.24,216.07,369.11,215.41Z"/><path class="cls-23" d="M405.44,203.91a2.56,2.56,0,0,1-2.34,2.73H363.63a2.56,2.56,0,0,1-2.34-2.73v-1.59a2.56,2.56,0,0,1,2.34-2.73H403.1a2.56,2.56,0,0,1,2.34,2.73Z"/><path class="cls-22" d="M400.43,221.32c0,5.59-.82,10.12-1.82,10.12s-1.82-4.53-1.82-10.12.81-10.13,1.82-10.13S400.43,215.73,400.43,221.32Z"/><path class="cls-24" d="M387.8,201.11c-10.16,0-18.39-.51-18.39-1.14,0-.14.37-.26,1-.38h-6.83a2.56,2.56,0,0,0-2.34,2.73v1.59a2.56,2.56,0,0,0,2.34,2.73H403.1a2.56,2.56,0,0,0,2.34-2.73v-1.59a3,3,0,0,0-.67-1.91A150.57,150.57,0,0,1,387.8,201.11Z"/><path class="cls-22" d="M369.41,200c0,.63,8.23,1.14,18.39,1.14a150.57,150.57,0,0,0,17-.7,2.18,2.18,0,0,0-1.67-.82H370.46C369.78,199.71,369.41,199.83,369.41,200Z"/><rect class="cls-20" x="378.7" y="243.96" width="9.33" height="4.78"/><rect class="cls-23" x="380.41" y="248.74" width="5.92" height="24.8"/><polygon class="cls-20" points="390.3 266.71 376.42 266.71 371.87 273.54 394.86 273.54 390.3 266.71"/><path class="cls-23" d="M389.07,266.71h-3.43q-3.5,3.39-6.94,6.83h3.62Z"/><path class="cls-23" d="M383.91,266.71h-1.62q-3.41,3.42-6.8,6.83H377Q380.44,270.11,383.91,266.71Z"/><rect class="cls-25" x="366.64" y="273.31" width="33.45" height="4.78"/><rect class="cls-20" x="366.64" y="273.31" width="2.96" height="4.78"/></g></g></svg>