<svg xmlns="http://www.w3.org/2000/svg" xmlns:xlink="http://www.w3.org/1999/xlink" viewBox="0 0 816.8 560.04"><defs><style>.cls-1{isolation:isolate;}.cls-2{fill:#f8991d;}.cls-3{fill:#631950;}.cls-4{fill:#727373;}.cls-5{fill:#71499d;opacity:0.4;mix-blend-mode:multiply;}.cls-6{fill:url(#linear-gradient);}.cls-7{fill:url(#linear-gradient-2);}.cls-8{fill:url(#linear-gradient-3);}.cls-9{fill:url(#linear-gradient-4);}.cls-10{fill:#552f0f;}.cls-11{fill:none;stroke:#552f0f;stroke-miterlimit:10;stroke-width:5px;}.cls-12{fill:url(#linear-gradient-5);}.cls-13{fill:url(#linear-gradient-6);}</style><linearGradient id="linear-gradient" x1="536.53" y1="275.5" x2="564.08" y2="275.5" gradientUnits="userSpaceOnUse"><stop offset="0" stop-color="#984321"/><stop offset="0.01" stop-color="#9a4421"/><stop offset="0.31" stop-color="#c05621"/><stop offset="0.58" stop-color="#dc6321"/><stop offset="0.82" stop-color="#ed6b21"/><stop offset="1" stop-color="#f36e21"/></linearGradient><linearGradient id="linear-gradient-2" x1="465.15" y1="185.02" x2="564.08" y2="185.02" gradientTransform="translate(699.63 -329.59) rotate(90)" xlink:href="#linear-gradient"/><linearGradient id="linear-gradient-3" x1="293.57" y1="275.5" x2="321.13" y2="275.5" xlink:href="#linear-gradient"/><linearGradient id="linear-gradient-4" x1="293.57" y1="183.42" x2="393.76" y2="183.42" gradientTransform="translate(527.09 -160.25) rotate(90)" xlink:href="#linear-gradient"/><linearGradient id="linear-gradient-5" x1="387.52" y1="156.94" x2="409.75" y2="156.94" xlink:href="#linear-gradient"/><linearGradient id="linear-gradient-6" x1="447.32" y1="156.94" x2="469.55" y2="156.94" xlink:href="#linear-gradient"/></defs><g class="cls-1"><g id="Layer_1" data-name="Layer 1"><path class="cls-2" d="M504,282.2c-.68-11.55-7.47-12-7.47-12C495.21,255.25,483.2,258,483.2,258c-3.85-12-16.08-9.51-16.08-9.51-2.71-8.83-18.57-6.11-18.57-6.11-6.34-6.57-11.55.22-11.55.22-12.91-5.66-18.11,4.53-18.11,4.53C398.05,245.28,393.75,260,393.75,260c-13.36.91-13.82,12.46-13.82,12.46-6.11,1.81-4.3,7.7-4.3,7.7a10.7,10.7,0,0,0-2,12.68H510.15C512.19,283.33,504,282.2,504,282.2Z"/><path class="cls-3" d="M511.43,294.41H372.69l-.46-.77a12.24,12.24,0,0,1,1.7-13.95,8.24,8.24,0,0,1,.74-5.09,7.22,7.22,0,0,1,3.83-3.3c.51-3.07,2.94-11.55,14.14-12.78,1.41-3.27,7-13.15,22.79-13.15.85,0,1.73,0,2.62.08a13.85,13.85,0,0,1,11.6-6.17,19.23,19.23,0,0,1,6.94,1.41,9.33,9.33,0,0,1,6.27-2.79,9.11,9.11,0,0,1,6.24,2.77,38.94,38.94,0,0,1,4.75-.3c7.42,0,12.33,2.2,14.29,6.37.45,0,1-.07,1.62-.07,3.3,0,11.08,1,14.5,9.57.31,0,.68,0,1.08,0,3.36,0,11.15,1.27,12.66,12.71,2.26.72,6.66,3.25,7.52,12a9.45,9.45,0,0,1,4.92,3.49c1.58,2.27,2,5.2,1.25,8.73Zm-136.84-3.14H508.83a7.1,7.1,0,0,0-1-5,6.71,6.71,0,0,0-4-2.49l-1.27-.17-.08-1.29c-.58-9.88-5.81-10.51-6-10.53l-1.3-.13-.14-1.29c-.83-9.09-5.71-11-9.66-11a9.4,9.4,0,0,0-1.8.16l-1.39.3-.44-1.36c-2.29-7.13-7.76-8.63-11.95-8.63a14,14,0,0,0-2.33.18l-1.39.28-.42-1.35c-1.37-4.47-7.16-5.4-11.77-5.4a32.8,32.8,0,0,0-5,.37L448,244l-.58-.6a6.53,6.53,0,0,0-4.56-2.38c-2.64,0-4.59,2.45-4.61,2.47l-.75,1-1.13-.5a17,17,0,0,0-6.72-1.58,10.78,10.78,0,0,0-9.37,5.4l-.48.92-1.05-.08c-1.13-.1-2.25-.15-3.32-.15-16.5,0-20.14,11.81-20.17,11.93L395,261.5l-1.1.07c-11.81.8-12.33,10.54-12.35,10.95l0,1.13-1.08.32a4.38,4.38,0,0,0-3.25,5.74l.26.87-.63.67A9.11,9.11,0,0,0,374.59,291.27Z"/><path class="cls-3" d="M392.64,258.52l2.31,3a11.84,11.84,0,0,1,7.76,2.27A11.3,11.3,0,0,0,392.64,258.52Z"/><path class="cls-3" d="M378.5,271.3l3,2.35a7.45,7.45,0,0,1,6.44,1.71S385.7,269.39,378.5,271.3Z"/><path class="cls-3" d="M373.93,279.69l3.46.89s3.7-2.66,7.28,0C384.67,280.58,380.4,274,373.93,279.69Z"/><path class="cls-3" d="M419.8,248.74l-1.75-3.29a10.5,10.5,0,0,0,.67,10.31A15.89,15.89,0,0,1,419.8,248.74Z"/><path class="cls-3" d="M449.1,240.67,448,244a7.43,7.43,0,0,1,6.45,7.67S458.09,244.69,449.1,240.67Z"/><path class="cls-3" d="M459.47,254.93a10.44,10.44,0,0,1,6.57-4.66l2.1-3.53C459.37,248,459.47,254.93,459.47,254.93Z"/><path class="cls-3" d="M484.26,256.24l-2.11,3.56a16.28,16.28,0,0,1,0,7.91S487.18,264.84,484.26,256.24Z"/><path class="cls-3" d="M489.7,274.05a8.11,8.11,0,0,1,5.44-2.42l2.86-2.72C490.66,268.32,489.7,274.05,489.7,274.05Z"/><path class="cls-3" d="M496.75,285.28c3.47-2.39,5.8-1.7,5.8-1.7l3-2.63A8.25,8.25,0,0,0,496.75,285.28Z"/><path class="cls-3" d="M389.36,281.09c-4.94,3.64-5.39,9.7-5.41,10l3.14.21a25.93,25.93,0,0,1,4.16-7.65c2.93-3.68,13.16-4.29,13.16-4.29C398.1,277.79,393,278.39,389.36,281.09Z"/><path class="cls-3" d="M412.93,279.57a15.49,15.49,0,0,0,.11-8.75,12.33,12.33,0,0,0,4.38-5.17,12,12,0,0,0,2.25.24,8.79,8.79,0,0,0,2.64-.41c3.9.68,6,4.88,6,4.88a8.24,8.24,0,0,0-3-6.58,10.34,10.34,0,0,0,2.93-4.93,10.79,10.79,0,0,1-5.69,3.89,11.23,11.23,0,0,1-4.43-.16,12,12,0,0,0-2.85-7.86s1.73,4.48.41,8.19a12.3,12.3,0,0,1-4,5,7.27,7.27,0,0,0-1.11-1.36l-.14-.11c-3.07-2.2-6.12-3-9.08-2.26-5.09,1.2-7.85,6.32-8,6.54a18.52,18.52,0,0,1,8.68-3.48,8.81,8.81,0,0,1,6.43,1.69c4.11,3.36,2.41,15.75,2.41,15.75.32-.62.6-1.22.85-1.81,4.31,4.76,3.71,9.52,3.68,9.74l3.11.47C418.6,292.78,419.58,285.82,412.93,279.57Z"/><path class="cls-3" d="M436.81,266.2c4.14-5.12,12.12-5.94,12.12-5.94-.45-.2-3.2-.66-3.87-.77,4.28-5.36,1.31-10,1.27-10.05s0,5.83-6.4,10.61a11.69,11.69,0,0,0-2.29,1.15,20.2,20.2,0,0,0-.34-5.32,31.28,31.28,0,0,1-9.16,18.55c-3.12-3.94-8.64-5-8.9-5.06,0,0,5.09,4.2,7.12,8,1.08,2,1.84,7.77.54,10.76,0,0,4.85-4.64,2.81-10.9A23,23,0,0,0,436.81,266.2Z"/><path class="cls-3" d="M441.81,252.64c-12.24-8.08-21,3-21.08,3.12S430.16,248.9,441.81,252.64Z"/><path class="cls-3" d="M443.14,284.64c.82-4.74.4-8.32-1.23-10.69,8.6-13.05,19.27-17,19.27-17-.5,0-12.15.81-21.63,14.88a6.09,6.09,0,0,0-3-.75s6.4,4.9,3.37,13.9l-.19,1.08.92.57c.11.08,2.78,1.81,2.47,7.08l3.14.18C446.52,288.64,444.42,285.84,443.14,284.64Z"/><path class="cls-3" d="M476.72,274.42a12.77,12.77,0,0,0,11-5.83s-7.53,4.28-11.7,2.67a11.7,11.7,0,0,0-1.49-5.56l-.06-.09c-2.74-3.89-5.61-5.67-8.53-5.31-5,.63-7.63,7.25-7.92,8,0,0,5.67-4.56,8.31-4.89,2.07-.26,4.15,2,5.54,3.95a8.29,8.29,0,0,1,.46,6.83,4.61,4.61,0,0,0-1.6.37c-3.87,1.63-4.12,7.9-4.14,8.61,0,0,2.34-5.24,5.36-5.71,1.26-.2,3.27.55,5.77,2.87.55.66,5,6.29,0,11.41l2.26,2.19c5.72-5.91,2.54-12.87,0-15.72l-.11-.12a17.59,17.59,0,0,0-4.5-3.22c.06-.17.11-.34.16-.5C475.91,274.4,476.29,274.42,476.72,274.42Z"/><path class="cls-3" d="M489.92,278.31a8,8,0,0,0-5.48-2.33s9.41,4.56,7.38,17.3l3.14-.11C494.71,286.17,493,281.17,489.92,278.31Z"/><path class="cls-3" d="M462.39,272.81a16.34,16.34,0,0,0-6.8,1.13,8.43,8.43,0,0,0-4.8-6.54,25.78,25.78,0,0,1,1.81,8.26,10.86,10.86,0,0,0-3.45,4.62,9.78,9.78,0,0,0-2.35-1.64s4.36,5.5,4,15.1l3.14.11a18.84,18.84,0,0,0-2.4-10.62c1.2-6.09,6.74-7.13,9.52-7.26,1.23,2.46-2.09,7.61-2.09,7.61,7.9-7,8.55-14.71,7.36-16.34A9.19,9.19,0,0,1,462.39,272.81Z"/><path class="cls-3" d="M433.53,285.26a14.72,14.72,0,0,1,6.16.79l3.45-1.41A8.26,8.26,0,0,0,433.53,285.26Z"/><path class="cls-4" d="M366.49,288.94c-.5,2.07-.69,3.29-.69,3.29-3.78,10.12-.81,13.62-.81,13.62a9.09,9.09,0,0,1,.54,9L351.9,344.57c-2.16,5.67,7.83,7,7.83,7,4.45-.14,5.13,2.56,5.13,2.56v2.43c-5,5.4,4.31,8.64,4.31,8.64-5.12,3-1.75,6.07-1.75,6.07,4.05,2.83,2.23,8.49,2.23,8.49-9.56,19.86,30.15,19.86,30.15,19.86,12.5,1.47,10.66,8.46,10.66,8.46v22.06l75.77-20.08c-1.09-41.17,16.88-63.1,16.88-63.1,11-16.51,13.63-40.62,13.63-40.62a60.31,60.31,0,0,0-.51-17.42Z"/><path class="cls-5" d="M410.46,410c17.36-7.18,33.33-22,33.33-22A116.71,116.71,0,0,1,397,399.55c1.71.09,2.76.09,2.76.09,12.5,1.47,10.66,8.46,10.66,8.46Z"/><path class="cls-3" d="M436.59,240.67l.91,3.81s4.16,2.5,3.92,6.11C441.42,250.59,443.83,243.28,436.59,240.67Z"/><rect class="cls-6" x="536.53" y="171.16" width="27.55" height="208.68"/><rect class="cls-7" x="500.84" y="135.55" width="27.55" height="98.94" transform="translate(329.59 699.63) rotate(-90)"/><rect class="cls-8" x="293.57" y="171.16" width="27.55" height="208.68"/><rect class="cls-9" x="329.89" y="133.32" width="27.55" height="100.19" transform="translate(160.25 527.09) rotate(-90)"/><rect class="cls-10" x="276.67" y="377.24" width="60.11" height="43.3"/><rect class="cls-10" x="520.25" y="379.84" width="60.11" height="43.3"/><polyline class="cls-11" points="398.63 165.69 398.63 197.19 421.37 214.5 421.38 232.69 433.7 232.69 434.09 215 458.43 197.19 458.43 165.69"/><circle class="cls-12" cx="398.63" cy="156.94" r="11.11"/><circle class="cls-13" cx="458.43" cy="156.94" r="11.11"/></g></g></svg>