<svg id="Layer_1" data-name="Layer 1" xmlns="http://www.w3.org/2000/svg" xmlns:xlink="http://www.w3.org/1999/xlink" viewBox="0 0 841.89 595.28"><defs><style>.cls-1{fill:url(#linear-gradient);}.cls-2{fill:#e57c25;}.cls-3,.cls-4{fill:none;stroke-miterlimit:10;}.cls-3{stroke:#fff;stroke-width:5px;}.cls-4{stroke:#e57c25;stroke-linecap:round;stroke-width:6px;}.cls-5{fill:url(#linear-gradient-2);}.cls-6{fill:url(#linear-gradient-3);}.cls-7{fill:url(#linear-gradient-4);}.cls-8{fill:url(#linear-gradient-5);}</style><linearGradient id="linear-gradient" x1="204.99" y1="370.88" x2="300.11" y2="370.88" gradientUnits="userSpaceOnUse"><stop offset="0" stop-color="#984321"/><stop offset="0.01" stop-color="#9a4421"/><stop offset="0.31" stop-color="#c05621"/><stop offset="0.58" stop-color="#dc6321"/><stop offset="0.82" stop-color="#ed6b21"/><stop offset="1" stop-color="#f36e21"/></linearGradient><linearGradient id="linear-gradient-2" x1="273.47" y1="208.19" x2="383.98" y2="208.19" xlink:href="#linear-gradient"/><linearGradient id="linear-gradient-3" x1="212.51" y1="327" x2="283.27" y2="327" xlink:href="#linear-gradient"/><linearGradient id="linear-gradient-4" x1="212.51" y1="282.67" x2="281.6" y2="282.67" gradientUnits="userSpaceOnUse"><stop offset="0" stop-color="#984321"/><stop offset="0.07" stop-color="#ab4c21"/><stop offset="0.2" stop-color="#c55821"/><stop offset="0.34" stop-color="#d96221"/><stop offset="0.5" stop-color="#e86921"/><stop offset="0.69" stop-color="#f06d21"/><stop offset="1" stop-color="#f36e21"/></linearGradient><linearGradient id="linear-gradient-5" x1="212.51" y1="212.16" x2="301.01" y2="212.16" xlink:href="#linear-gradient"/></defs><circle cx="425.12" cy="214.16" r="37.44"/><polygon class="cls-1" points="300.11 382.35 204.99 382.35 204.99 360.35 300.11 359.41 300.11 382.35"/><polygon class="cls-2" points="349.94 373.99 332.1 373.99 332.1 333.51 349.94 319.21 349.94 373.99"/><polygon class="cls-2" points="411.93 373.99 390.28 373.99 390.28 287.26 411.93 270.38 411.93 373.99"/><polygon class="cls-2" points="468.83 373.99 447.18 373.99 447.18 242.02 468.83 224.31 468.83 373.99"/><polygon class="cls-2" points="522.76 377.28 501.11 377.28 501.11 201.12 525.74 178.23 522.76 377.28"/><polygon class="cls-2" points="589.01 376.12 564.38 376.12 564.38 148.85 589.01 129.27 589.01 376.12"/><line class="cls-3" x1="292.18" y1="367.62" x2="603.59" y2="120.06"/><path class="cls-4" d="M387.82,189.51s-28.68,49.14,28.64,69.36"/><line class="cls-3" x1="297.36" y1="372.97" x2="619.58" y2="376.12"/><path class="cls-5" d="M378.69,220.05l-76.33-39.36c-19-4.75-26.44,10.33-26.44,10.33-9.92,22.37,13.51,31.21,13.51,31.21s83.09,20.8,92,12.37C388.45,228,378.69,220.05,378.69,220.05Zm-80.45-8.91a10,10,0,1,1,10-10A10,10,0,0,1,298.24,211.14Z"/><path class="cls-6" d="M245.47,292.46h0a33,33,0,0,0-33,33.12v36l70.76-1.69V330.43A37.88,37.88,0,0,0,245.47,292.46Zm1,54.61a18.49,18.49,0,1,1,18.4-18.49A18.45,18.45,0,0,1,246.46,347.07Z"/><path class="cls-7" d="M281.59,319.21s-38-107.44-50.55-112.39c-14.44-5.69-15.89,8.72-15.89,8.72l-2.64,115.57c5.45,29.95,35.79,28.73,35.79,28.73C283.3,360.06,281.59,319.21,281.59,319.21Zm-60.92-91.72a7.39,7.39,0,1,1,7.39,7.39A7.39,7.39,0,0,1,220.67,227.49Zm25.79,122a18.4,18.4,0,1,1,18.4-18.4A18.4,18.4,0,0,1,246.46,349.51Z"/><path class="cls-8" d="M279.07,181.13,222.4,204.81c-15.45,12-8.18,27.17-8.18,27.17,11.15,22.55,32.91,8.62,32.91,8.62s50.2-38.31,53-47.5C306.22,172.86,279.07,181.13,279.07,181.13Zm-45,48.43a8.7,8.7,0,1,1,8.7-8.7A8.69,8.69,0,0,1,234.1,229.56Zm52.6-32.3a6.45,6.45,0,1,1,6.44-6.44A6.44,6.44,0,0,1,286.7,197.26Z"/></svg>