<svg id="Layer_1" data-name="Layer 1" xmlns="http://www.w3.org/2000/svg" viewBox="0 0 816.8 611.76"><defs><style>.cls-1{fill:#e5f4fc;}.cls-2{fill:#63767f;}.cls-3{fill:#f47741;}.cls-4{fill:#a5b6bd;}.cls-5{fill:#bcccd6;}.cls-6{fill:#687980;}.cls-7{fill:#889da7;}</style></defs><path class="cls-1" d="M545.39,195.38h-274a29.33,29.33,0,0,0-29.35,29.32V421.15a29.33,29.33,0,0,0,29.35,29.31h274a29.33,29.33,0,0,0,29.35-29.31V224.7A29.33,29.33,0,0,0,545.39,195.38Z"/><path class="cls-2" d="M559.2,195.38H257.6c-8.59,0-15.55,8.6-15.55,19.2V431.26c0,10.61,7,19.2,15.55,19.2H559.2c8.59,0,15.55-8.59,15.55-19.2V214.58C574.75,204,567.79,195.38,559.2,195.38ZM563.79,416c0,10.61-7,19.2-15.55,19.2H268.56C260,435.15,253,426.56,253,416V223c0-10.6,7-19.2,15.55-19.2H548.24c8.58,0,15.55,8.6,15.55,19.2Z"/><path class="cls-3" d="M381.6,287.93a35,35,0,1,0,37,39.54h-37Z"/><path class="cls-4" d="M386.61,288v34.5h32.3A35,35,0,0,0,386.61,288Z"/><rect class="cls-5" x="269.47" y="386.1" width="67.82" height="5.32"/><rect class="cls-5" x="269.47" y="395.03" width="67.82" height="5.32"/><rect class="cls-5" x="269.47" y="403.96" width="67.82" height="5.32"/><rect class="cls-5" x="269.47" y="412.89" width="67.82" height="5.32"/><path class="cls-6" d="M404.05,290.92a12,12,0,0,1,2.26,2.16l29.08-59H480.1v-3H433.5Z"/><path class="cls-6" d="M418.63,309.47a10.53,10.53,0,0,1,1.45,4.44l28.39-58.1H480.1v-3H446.58Z"/><rect class="cls-3" x="489.2" y="227.68" width="60.65" height="9.85"/><rect class="cls-3" x="489.2" y="249.37" width="60.65" height="9.85"/><rect class="cls-7" x="482.9" y="284.24" width="73.25" height="5.74"/><rect class="cls-7" x="482.9" y="293.89" width="73.25" height="5.74"/><rect class="cls-7" x="482.9" y="303.53" width="73.25" height="5.74"/><rect class="cls-7" x="482.9" y="313.17" width="73.25" height="5.74"/><rect class="cls-7" x="482.9" y="322.82" width="73.25" height="5.74"/><rect class="cls-5" x="482.9" y="274.6" width="73.25" height="5.74"/><rect class="cls-5" x="482.9" y="284.24" width="73.25" height="5.74"/><rect class="cls-5" x="482.9" y="293.89" width="73.25" height="5.74"/><rect class="cls-5" x="482.9" y="303.53" width="73.25" height="5.74"/><rect class="cls-5" x="482.9" y="313.17" width="73.25" height="5.74"/><rect class="cls-5" x="482.9" y="322.82" width="73.25" height="5.74"/><rect class="cls-5" x="482.9" y="332.46" width="73.25" height="5.74"/><path class="cls-5" d="M303.38,314.6h20.55V240.35H310.27C313.61,259.53,312,283.57,303.38,314.6Z"/><path class="cls-4" d="M339.85,240.35H323.93V314.6h22.81C338.09,283.57,336.52,259.53,339.85,240.35Z"/><path class="cls-5" d="M265.86,366.42h20.56V292.16H272.75C276.09,311.34,274.51,335.39,265.86,366.42Z"/><path class="cls-4" d="M302.33,292.16H286.42v74.26h22.8C300.58,335.39,299,311.34,302.33,292.16Z"/><path class="cls-5" d="M352.91,222a3.22,3.22,0,0,0,.59-.63c-.09,0-.17-.08-.26-.08Z"/><path class="cls-5" d="M353.5,221.41a3.22,3.22,0,0,1-.59.63l.33-.71c.09,0,.17.07.26.08a3.25,3.25,0,0,0,1-2.48,3.4,3.4,0,0,0-2.1-2.82,4.48,4.48,0,0,0-4.06.7,13.22,13.22,0,0,0-2.91,3.1c.47-1.26-.73-2.66-2.07-2.84a5.19,5.19,0,0,0-3.7,1.32,14.21,14.21,0,0,0-5.14,8.07c-6.43-1.12-7.85,5.76-9.24,10.49q-.35,1.17-.66,2.4c3.16-3.87,5.94-5.92,10.91-7.17,3.23-.82,6.6-1,9.75-2.08a9.37,9.37,0,0,1,3.45-.86c1.39-.07,2.55.47,4,0a5,5,0,0,0,3.56-3.95A3.62,3.62,0,0,0,353.5,221.41Z"/><path class="cls-4" d="M441.32,368.17H416.39v50.94h54.08V395.19h14.34v23.92h5.91V368.17h-49.4Zm-11.84,41.94h-6.39v-6.86h6.39Zm0-8.62h-6.39v-6.61h6.39Zm0-13.71h-6.44v-6.24h6.44Zm0-8h-6.44v-7.22h6.44Zm7.89,30.33h-6.18v-6.86h6.18Zm0-8.62h-6.18v-6.61h6.18Zm0-13.71H431.3v-6.24h6.12Zm0-8H431.3v-7.22h6.12ZM453,410.11h-6.23v-6.86H453Zm0-8.62h-6.23v-6.61H453Zm.06-13.71h-6.29v-6.24h6.29Zm0-8h-6.29v-7.22h6.29Zm8.05,30.33h-6.34v-6.86h6.34Zm0-8.62h-6.34v-6.61h6.34Zm0-13.71h-6.29v-6.24h6.29Zm0-8h-6.29v-7.22h6.29Zm17.24-7.22h6.45v7.22h-6.45Zm0,9h6.45v6.24h-6.45Zm-7.89-9h6.13v7.22h-6.13Zm0,9h6.13v6.24h-6.13Z"/><polygon class="cls-4" points="441.32 420.45 412.74 420.45 412.74 426.81 441.32 426.81 465.8 426.81 495.15 426.81 495.15 420.45 465.8 420.45 441.32 420.45"/><polygon class="cls-4" points="481.45 352.68 481.45 359.56 470.43 359.56 470.43 352.68 465.8 352.68 441.32 352.68 420.36 352.68 412.8 364.91 441.32 364.91 465.8 364.91 495.13 364.91 487.56 352.68 481.45 352.68"/><rect class="cls-4" x="472.15" y="347.34" width="7.58" height="11.11"/><rect class="cls-4" x="471.88" y="396.4" width="11.26" height="22.82"/><polygon class="cls-4" points="494.69 365.44 465.8 365.44 441.32 365.44 413.42 365.44 413.42 367.15 441.32 367.15 465.8 367.15 492.69 367.15 492.69 418.31 497.54 418.31 497.54 416.19 494.71 416.19 494.69 365.44"/><path class="cls-5" d="M395.2,379.69a2.64,2.64,0,1,0-3.76-3.51c-.1-1.73,0-3.29-1.79-4.23a2.84,2.84,0,0,0-2.56-.12,4.47,4.47,0,0,0-2.41,3.2,3.54,3.54,0,0,0-2.29-.83,3.71,3.71,0,0,0-3,1.39,3.94,3.94,0,0,0,.82,5.25c-2.81.91-4.57,1-5.1,4.22-.22,1.27-.07,5.82,2.38,4.48a3.51,3.51,0,0,0-1.82,4,3.44,3.44,0,0,0,4,2.24c.19,3.46,3.82,3.72,6.36,2.87l.1,0v16.48h-4.81a2,2,0,0,0-2.08,2.15h16.23a2,2,0,0,0-2.08-2.15h-5.17V397.84c.39.14.5.65,1,.75,1.23.24,2.22.74,3.36-.22a3,3,0,0,0,.05-4.34,3.84,3.84,0,0,0,4.16-2.63c.59-1.63-.35-2.61-1.4-3.64,0-.28,0-.55,0-.83a3.69,3.69,0,0,0-.07-7.24Z"/><path class="cls-4" d="M366.42,378.23a3.39,3.39,0,1,0-4.83-4.49c-.13-2.23,0-4.23-2.29-5.44a3.69,3.69,0,0,0-3.29-.15,5.76,5.76,0,0,0-3.1,4.11,4.56,4.56,0,0,0-2.94-1.07,4.79,4.79,0,0,0-3.88,1.79c-1.61,2.12-.84,5.1,1.05,6.73-3.6,1.18-5.86,1.24-6.55,5.42-.27,1.63-.08,7.47,3.06,5.75a4.53,4.53,0,0,0-2.34,5.16,4.42,4.42,0,0,0,5.11,2.88c.24,4.44,4.91,4.77,8.17,3.69l.12-.05v21.15h-6.16a2.61,2.61,0,0,0-2.68,2.75H366.7a2.61,2.61,0,0,0-2.68-2.75h-6.63V401.52c.5.18.65.85,1.25,1,1.58.32,2.85,1,4.31-.27a3.86,3.86,0,0,0,.07-5.57,4.93,4.93,0,0,0,5.34-3.38c.76-2.09-.45-3.35-1.8-4.67,0-.35,0-.71-.05-1.06a4.74,4.74,0,0,0-.09-9.3Z"/><path class="cls-5" d="M304.62,229.1a6.72,6.72,0,0,0-7.36-2.2,9.26,9.26,0,0,0-5.59,5.62,15.12,15.12,0,0,0-.48,8.09c-18.34,2.39-12.14,34.51-12.25,47.27,2.6-5.14,5.25-10.26,7.78-15.44,1.43-2.93,6.46-9.54,6.46-12.5,3.27-4.83,9.3-5.6,11.54-11.6a13.76,13.76,0,0,0-1.23-12A5.3,5.3,0,0,0,304.62,229.1Z"/><path class="cls-5" d="M530.18,366.88l2.54-1.91-2-3.78-3,1a11.41,11.41,0,0,0-1.66-1.53l.71-3.07-3.93-1.64-1.68,2.66a10.2,10.2,0,0,0-2.28-.11l-1.41-2.79-.12,0-4,1.23.42,3.1a11.75,11.75,0,0,0-1.81,1.39l-2.88-1.22-2.3,3.58,2.34,2.13a11,11,0,0,0-.49,2.2l-3,.92.55,4.22,3.18.13a11.19,11.19,0,0,0,1,2L508.71,378l3.13,2.89,2.55-2a10.86,10.86,0,0,0,2,.84l.39,3.19,4.26.2.35-1.61.34-1.55c.34-.08.69-.16,1-.27a10.38,10.38,0,0,0,1.06-.39l2.35,2.2,3.39-2.58-1.5-2.86a10.46,10.46,0,0,0,1.18-1.84l3.22.17.93-4.15-3-1.22A11.14,11.14,0,0,0,530.18,366.88Zm-8.62,8.94a7.21,7.21,0,0,1-1,.23,6.79,6.79,0,0,1-3-13.19,6.47,6.47,0,0,1,1-.21,6.78,6.78,0,0,1,3.09,13.17Z"/><path class="cls-5" d="M374.31,259.3l2.8-2.1L375,253.05l-3.32,1.06a11.55,11.55,0,0,0-1.82-1.68l.79-3.37-4.32-1.81-1.84,2.92a12.26,12.26,0,0,0-2.5-.12L360.39,247l-.13,0-4.34,1.34.46,3.42a11.9,11.9,0,0,0-2,1.52L351.23,252l-2.53,3.94,2.57,2.33a11,11,0,0,0-.54,2.42l-3.31,1,.59,4.64,3.5.14a11.69,11.69,0,0,0,1.14,2.16l-1.91,2.93,3.44,3.17,2.8-2.16a12,12,0,0,0,2.23.92l.43,3.5,4.67.22.39-1.77.37-1.69c.38-.09.76-.18,1.13-.3a11.43,11.43,0,0,0,1.16-.42l2.59,2.41,3.72-2.83L372,269.45a12.63,12.63,0,0,0,1.3-2l3.53.18,1-4.56-3.26-1.33A11.89,11.89,0,0,0,374.31,259.3Zm-9.45,9.82a7.34,7.34,0,0,1-1.11.24,7.44,7.44,0,0,1-3.33-14.47,7.8,7.8,0,0,1,1-.24,7.45,7.45,0,0,1,3.4,14.47Z"/><path class="cls-4" d="M543.85,394.66l2.5-1.89-1.92-3.7-3,.94a10.45,10.45,0,0,0-1.62-1.5l.7-3-3.86-1.61-1.65,2.6a10.43,10.43,0,0,0-2.24-.1l-1.39-2.74-.11,0-3.88,1.2.41,3.05a11.38,11.38,0,0,0-1.77,1.36l-2.83-1.2L521,391.62l2.29,2.08a11.36,11.36,0,0,0-.48,2.17l-2.95.9.52,4.14,3.14.13a9.82,9.82,0,0,0,1,1.93l-1.71,2.62,3.07,2.83,2.51-1.93a10.86,10.86,0,0,0,2,.83l.38,3.12,4.18.2.35-1.58.33-1.52c.34-.07.68-.16,1-.26s.7-.24,1-.38l2.31,2.16,3.32-2.53-1.47-2.81a10.71,10.71,0,0,0,1.16-1.81l3.15.17L547,398l-2.91-1.19A11.39,11.39,0,0,0,543.85,394.66Zm-8.45,8.77a8.79,8.79,0,0,1-1,.22,6.66,6.66,0,0,1-3-12.94,6.22,6.22,0,0,1,.93-.21,6.66,6.66,0,0,1,3,12.93Z"/></svg>